<svg xmlns="http://www.w3.org/2000/svg" width="1521" height="839" fill="none"><path fill="#3D99ED" fill-rule="evenodd" d="M822.312 838.078h59.333c217.255 0 379.655-162.393 379.655-384.039C1261.3 232.394 1098.9 70 881.645 70h-59.333v125.087h59.333c149.225 0 254.565 108.628 254.565 258.952s-105.34 258.952-254.565 258.952h-59.333v125.087z" clip-rule="evenodd"/><path fill="#54CE52" fill-rule="evenodd" d="M1207.31 830.573c183.07-29.505 313.15-180.415 313.15-378.786S1390.38 102.506 1207.31 73v127.535c113.07 27.264 188.06 124.416 188.06 251.252 0 126.835-74.99 223.988-188.06 251.251v127.535z" clip-rule="evenodd"/><path fill="#FFDB21" d="m139.205 749.344 261.147 70.224c209.575 57.058 409.276-58.154 466.333-272.119 57.057-213.965-57.057-413.665-267.73-469.625L337.808 7.6 139.205 749.344zm152.519-87.78 133.865-500.349 141.546 37.307c143.74 38.404 217.256 171.172 178.852 316.009C706.486 660.466 577.01 737.274 433.269 698.87l-141.545-37.306z"/><rect width="156.359" height="156.359" x="94.039" y="99.641" fill="#F47F2B" rx="78.179"/><rect width="156.359" height="156.359" y="423.98" fill="#F47F2B" rx="78.179"/></svg>