<svg xmlns="http://www.w3.org/2000/svg" viewBox="0 0 430 260" fill="none">
  <g stroke="#050505" stroke-width="6" stroke-linecap="round" stroke-linejoin="round" vector-effect="non-scaling-stroke">
    <path d="M117 92c-4-40 22-68 63-62 38 5 62 34 58 72-3 35-28 56-66 56-34 0-56-21-55-66Z"/>
    <path d="M126 77c20-27 57-37 98-16M137 58c-5 25-2 55 9 91M163 45c-4 27 0 61 11 100M191 48c6 25 4 56-7 91M218 67c14 24 15 50 1 77"/>
    <path d="M116 106c-27 2-53 14-76 36M229 104c28 6 55 21 82 46"/>
    <path d="M133 122c9-6 21-7 32-1M185 123c11-6 23-4 33 5"/>
    <path d="M154 145c14 10 30 10 46 0"/>
    <path d="M139 162c17 21 39 31 67 28"/>
    <path d="M150 184c-28 30-46 54-55 73M209 184c28 21 55 44 80 70"/>
    <path d="M177 192c9 27 24 48 46 63M144 196c-19 0-38 4-58 12"/>
    <path d="M225 189c43 9 82 24 118 44M266 204c37 3 72 11 105 25"/>
    <path d="M127 181c-16 4-29 13-39 26M115 206c22 19 49 30 82 33M197 239c16-12 28-29 36-50"/>
    <path d="M210 191c22 4 43 1 62-10M270 181c17 9 31 24 43 44"/>
    <path d="M250 188c13-8 23-18 30-30M280 158c18 4 34 13 47 27"/>
    <circle cx="281" cy="227" r="10"/>
    <path d="M109 59c-22 2-39 13-51 33M123 42c-24-7-45-1-63 17M147 31c-18-14-39-15-61-3"/>
  </g>
</svg>
