<svg xmlns="http://www.w3.org/2000/svg" viewBox="0 0 430 260" fill="none">
  <g stroke="#050505" stroke-width="8" stroke-linecap="round" stroke-linejoin="round" vector-effect="non-scaling-stroke">
    <path d="M127 99c0-44 33-73 82-67 43 5 70 37 66 82-4 39-32 62-74 62-47 0-74-30-74-77Z"/>
    <path d="M143 82c27-34 83-39 117-6"/>
    <path d="M176 56c-2 33 4 66 13 96M217 59c5 31 1 61-10 89"/>
    <path d="M128 110c-21 5-39 17-53 35M276 111c24 8 45 22 64 43"/>
    <path d="M158 126c10-7 22-7 34 0M214 126c11-6 23-5 33 2"/>
    <path d="M184 151c14 9 30 9 45 0"/>
    <path d="M165 177c18 20 47 25 76 9"/>
    <path d="M174 190c-28 17-52 38-72 63M240 190c39 10 74 26 105 48"/>
    <path d="M203 193l-13 49M222 194l36 42"/>
    <circle cx="282" cy="229" r="10"/>
    <path d="M122 66c-21-4-40 2-57 18M139 49c-19-14-41-14-62-1"/>
  </g>
</svg>
