<svg xmlns="http://www.w3.org/2000/svg" viewBox="0 0 260 760" fill="none">
  <g stroke="#050505" stroke-width="6" stroke-linecap="round" stroke-linejoin="round" vector-effect="non-scaling-stroke">
    <path d="M92 103c-6-37 16-67 55-67 37 0 62 25 65 63 2 28-5 56-27 73-17 13-49 17-70 7-22-11-33-37-23-76Z"/>
    <path d="M100 88c19-27 53-41 90-21M111 73c-5 29-2 58 8 87M135 58c-3 27 0 59 8 96M160 56c4 23 1 52-9 87M184 73c17 24 20 53 7 86"/>
    <path d="M89 112c-18 16-29 38-26 58 2 17 15 29 34 28M205 113c19 15 30 35 27 56-2 18-14 31-32 33"/>
    <path d="M109 129c9-7 20-8 30-2M158 128c11-6 22-4 31 5"/>
    <path d="M123 144c2 8 9 12 19 12M174 145c-3 8-10 11-20 10M143 164c7 5 15 5 23 0"/>
    <path d="M112 179c6 18 20 29 42 31 22-1 37-12 45-31"/>
    <path d="M112 213c-3 31-7 61-10 91M199 213c3 32 7 62 9 91"/>
    <path d="M104 229c18 22 34 33 51 34 18-1 35-12 52-34"/>
    <path d="M84 238c-22 30-34 64-37 102M221 238c20 29 31 62 34 99"/>
    <path d="M101 304c-17 11-33 17-49 18M207 304c18 9 35 14 50 13"/>
    <path d="M115 230l77 0M120 244l-15 78M189 245l18 78"/>
    <path d="M142 245l-4 98M167 246l2 97M137 262l31 0"/>
    <path d="M117 333c-14 56-23 108-27 156 37 23 84 25 129 2-6-58-16-111-32-158"/>
    <path d="M103 355c23 17 61 21 99 2M115 373c-9 37-14 75-15 113M140 366c-3 43-3 85 0 127M166 366c6 40 9 82 9 125M192 373c10 34 15 70 16 108"/>
    <path d="M102 490c-4 71-9 122-18 168M211 491c0 69-5 121-16 167"/>
    <path d="M83 654c21 8 40 8 58-1M176 653c20 8 38 8 55-2"/>
    <path d="M93 662c-12 12-20 25-24 39 19 12 45 12 70 3 5-16 4-31-3-45M184 662c-13 13-21 27-25 42 22 9 48 7 72-4 4-16 1-30-9-42"/>
    <path d="M205 214c26 27 41 70 44 129 3 66-7 121-31 166M224 293c-38 1-65 2-80 5M224 310c-2 60-7 116-17 166M147 299c0 59-3 112-10 159M144 461c21 7 42 7 63 0"/>
    <path d="M231 355c13 9 24 10 33 1 0-16-8-27-25-33M240 323c-10 5-18 11-24 20M240 323c9-5 18-7 28-6"/>
  </g>
</svg>
