<svg xmlns="http://www.w3.org/2000/svg" viewBox="0 0 260 620" fill="none">
  <g stroke="#050505" stroke-width="8" stroke-linecap="round" stroke-linejoin="round" vector-effect="non-scaling-stroke">
    <path d="M63 132c0-56 37-95 88-89 47 6 77 43 71 94-5 45-35 70-82 70-48 0-77-29-77-75Z"/>
    <path d="M79 114c21-38 76-52 120-14"/>
    <path d="M106 82c-2 35 4 72 15 107M145 70c3 38-1 76-12 113M183 90c10 31 8 64-8 93"/>
    <path d="M66 137c-23 20-24 51-1 67M220 140c21 20 20 51-3 68"/>
    <path d="M103 143c10-7 22-7 32 0M160 143c10-7 22-6 31 1"/>
    <path d="M125 169c12 8 29 8 43 0"/>
    <path d="M111 211c9 18 26 28 47 28 20 0 36-10 45-28"/>
    <path d="M104 236c8 47 8 87 0 123M204 236c-8 47-7 87 2 123"/>
    <path d="M107 252c24 19 66 20 94 0"/>
    <path d="M83 256c-24 28-37 59-39 94M216 256c22 29 32 61 28 96"/>
    <path d="M96 356c36 21 76 22 118 1l-12 88c-32 17-68 17-106 0Z"/>
    <path d="M115 445c-2 58-7 100-16 126M186 445c3 58 0 100-9 126"/>
    <path d="M98 572c-17 10-26 20-29 32 20 8 43 8 66 0 2-12-4-23-17-32M178 572c-15 10-23 20-25 32 22 8 44 7 65-2 1-12-6-23-22-30"/>
    <path d="M205 242c25 40 33 87 24 140M228 330c14 6 25 3 32-9"/>
  </g>
</svg>
